<svg xmlns="http://www.w3.org/2000/svg" data-name="Layer 1" viewBox="0 0 512 512"><path fill="#ffcd85" d="M397.59021,405.73c-1.44,41.64,23.66,76.33,44.55,98.77h-203.37V431.37a16.21858,16.21858,0,0,0-16.45-15.97h-37.74c-18.72,0-33.89-14.74-33.89-32.92V311.36a8.022,8.022,0,0,0-8-8h-23.34a10.32893,10.32893,0,0,1-8.18-16.97c11.18-13.25,21.67-29.81,26.95-49.56005h.01a104.80986,104.80986,0,0,0,2.62-12.97c3.79-27.7-6.27-37.13-3.72-57.81,2.15-17.45,12.24-34.58,27.46-49.74,29.36-29.22,77.78-51.1,125.09-53.85,67.3-3.91,143.36,30.27,168.68,89.13,23.55,54.72-2.28,117.91-16.12,151.77-16.54,40.47-34.08,57.25-41.26,81.49A82.889,82.889,0,0,0,397.59021,405.73Z"/><path fill="#ffc166" d="M442.1402,303.36c13.84-33.86,39.67-97.05,16.12-151.77-25.32-58.86-101.38-93.04-168.68-89.13-1.43158.08313-2.86438.19006-4.29749.30786C345.218,67.54376,406.12616,100.13629,428.26019,151.59c23.55,54.72-2.28,117.91-16.12,151.77-20.83,50.96-43.23,64.35-44.55,102.37-1.44,41.64,23.66,76.33,44.55,98.77h30c-20.89-22.44-45.99-57.13-44.55-98.77C398.91016,367.71,421.31018,354.32,442.1402,303.36Z"/><path fill="#ffc166" d="M442.1402,303.36c-16.54,40.47-34.08,57.25-41.26,81.49-4.98-20.96-7.85-42.04-9.8-63.58-2.8-30.75,6.56-61.66,3.88995-91.98-2.05-23.23-29.24-33.02-48.18-22.92-14.43,7.71-22.18,23.04-36.35,30.98-14.36,8.04-29.72,2.52-39.22-10.04-11.16-14.76-9.24-33.15-14.19995-50.15a76.68863,76.68863,0,0,0-25.71-37.83c-18.39-14.87-42.28-22.42-65.76-22.96-.36-.01-.71-.03-1.06-.06,29.36-29.22,77.78-51.1,125.09-53.85,67.3-3.91,143.36,30.27,168.68,89.13C481.81018,206.31,455.98016,269.5,442.1402,303.36Z"/><path fill="#4a4f60" d="M153.83634,71.52649c-10.97973,10.72727-3.62948,29.4976,11.71145,29.84838,23.482.53692,47.37732,8.08056,65.76521,22.95967a76.70879,76.70879,0,0,1,25.70235,37.822c4.96873,16.99991,3.04532,35.38868,14.20749,50.15146,9.49609,12.55929,24.86081,18.08313,39.21638,10.04213,14.16926-7.93663,21.92466-23.27449,36.35239-30.97523,18.93921-10.10874,46.12875-.31254,48.17431,22.914,2.67064,30.32484-6.68075,61.231-3.888,91.98542,2.22411,24.49254,5.63255,48.39633,11.981,72.21785,19.3541-13.6934,63.91218-49.22953,86.47022-111.95656,5.28127-14.68552,41.23832-119.839-21.84889-197.64469C393.11-23.07677,254.06221,12.62683,227.49908,23.20617A224.1854,224.1854,0,0,0,153.83634,71.52649Z"/><path fill="#3b3f4d" d="M467.68024,68.89093C422.2113,12.814,352.77093,4.20453,299.47467,8.4231c43.399,3.68042,89.779,19.24273,123.20557,60.46783,63.08722,77.8056,27.13018,182.95917,21.84887,197.64465a228.94906,228.94906,0,0,1-48.54889,78.86591c1.85022,11.08069,4.14826,22.09485,7.07868,33.09064,19.35412-13.69336,63.91217-49.2295,86.47021-111.95655C494.81042,251.8501,530.76746,146.69653,467.68024,68.89093Z"/><path fill="#ff8585" d="M7.49823 324.9375a7.50118 7.50118 0 0 1-2.28418-14.645l63.53418-20.333a7.5 7.5 0 0 1 4.57227 14.28614l-63.53418 20.333A7.50083 7.50083 0 0 1 7.49823 324.9375zM30.50946 363.61377a7.50074 7.50074 0 0 1-3.84082-13.94727l55.8667-33.22558a7.5 7.5 0 0 1 7.667 12.89258l-55.8667 33.22558A7.46277 7.46277 0 0 1 30.50946 363.61377zM53.50555 402.28955a7.5 7.5 0 0 1-5.186-12.91894l48.19922-46.11768a7.5 7.5 0 1 1 10.37011 10.83789L58.68964 400.2085A7.47354 7.47354 0 0 1 53.50555 402.28955zM357.7702 504.5h-58.12c6.67-20.07 23.38-79.43-3.21-142.45a185.43023 185.43023 0 0 0-24.77-42.07 17.97893 17.97893 0 0 0-19.31-6.15c-16.81 5.08-28.26 3.17-36.09-.23-16.12-7.02-19.8-21.68-34.04-23.96-12.77-2.03-25.05 7.31-33.82 16.14a7.949 7.949 0 0 0-5.72-2.42h-23.34a10.32893 10.32893 0 0 1-8.18-16.97c11.18-13.25 21.67-29.81 26.95-49.56005h.01c25.68 1.85 42.89-2.73 54.04-7.46 5.48-2.32 11.01-4.26 17.44-4.6a46.45789 46.45789 0 0 1 7.74.36c14.1 2.03 29.7 23.73 38.98 32.86 18.46 18.15 41.36 15.53 54.2 19.76C335.23016 285.89 360.31018 331.84 357.7702 504.5z"/><path fill="#ff7070" d="M167.23016 289.64c-11.6051-1.84484-22.80487 5.70075-31.334 13.72h6.794a7.949 7.949 0 0 1 5.72 2.42c6.13287-6.17481 13.98315-12.59363 22.51617-15.20459A21.12667 21.12667 0 0 0 167.23016 289.64zM141.88348 237.04724c-1.23565-.061-2.476-.12524-3.75329-.21728h-.01c-.03284.12274-.07117.24194-.10437.36444Q139.99 237.14588 141.88348 237.04724zM310.53021 277.75c-12.84-4.23-35.74-1.61-54.2-19.76-9.28-9.13-24.88-30.83-38.98-32.86a46.45789 46.45789 0 0 0-7.74-.36 38.71487 38.71487 0 0 0-5.53467.71368c13.6319 3.4292 28.3515 23.74707 37.2547 32.50635 18.46 18.15 41.36 15.53 54.2 19.76 24.7 8.14 49.78 54.09 47.24 226.75h15C360.31018 331.84 335.23016 285.89 310.53021 277.75z"/><path fill="#ff7070" d="M237.36017,313.83a75.23725,75.23725,0,0,1-11.41974,2.5523c6.29706.99713,14.08679.78418,23.74432-1.79724A17.90227,17.90227,0,0,0,237.36017,313.83Z"/></svg>