<?xml version="1.0" encoding="iso-8859-1"?>
<!-- Generator: Adobe Illustrator 19.0.0, SVG Export Plug-In . SVG Version: 6.00 Build 0)  -->
<svg xmlns="http://www.w3.org/2000/svg" xmlns:xlink="http://www.w3.org/1999/xlink" version="1.1" id="Layer_1" x="0px" y="0px" viewBox="0 0 489.691 489.691" style="enable-background:new 0 0 489.691 489.691;" xml:space="preserve" width="512" height="512">
<g>
	<path style="fill:#FFD0A6;" d="M466.258,236.062c0,27.58-21.24,50.181-48.247,52.341c-1.409,0.119-2.841,0.179-4.274,0.179   c-3.677,0-7.259-0.37-10.721-1.098H86.675c-3.463,0.728-7.044,1.098-10.722,1.098h-0.036c-29-0.024-52.485-23.52-52.485-52.521   c0-27.341,20.894-49.798,47.59-52.27c1.624-0.167,3.271-0.239,4.931-0.239c2.209,0,4.37,0.131,6.507,0.394h324.771   c2.137-0.263,4.298-0.394,6.507-0.394c3.116,0,6.172,0.275,9.133,0.8C447.526,188.664,466.258,210.178,466.258,236.062z"/>
	<path style="fill:#E8B182;" d="M422.871,184.353v66.525c0,12.918-1.683,25.49-4.859,37.525c-1.409,0.119-2.841,0.179-4.274,0.179   c-3.677,0-7.259-0.37-10.721-1.098H86.675c-3.463,0.728-7.044,1.098-10.722,1.098h-0.036c-3.2-12.094-4.895-24.714-4.895-37.704   v-67.086c1.624-0.167,3.271-0.239,4.931-0.239c2.209,0,4.37,0.131,6.507,0.394h324.771c2.137-0.263,4.298-0.394,6.507-0.394   C416.854,183.554,419.91,183.828,422.871,184.353z"/>
	<path style="fill:#D6996B;" d="M437.624,245.144c-2.896,0-5.654-1.687-6.882-4.512c-5.282-12.151-20.807-7.901-21.466-7.714   c-3.987,1.129-8.133-1.183-9.263-5.167c-1.131-3.984,1.182-8.132,5.167-9.263c9.94-2.823,30.953-3.075,39.317,16.164   c1.651,3.798-0.089,8.217-3.888,9.868C439.636,244.943,438.622,245.144,437.624,245.144z"/>
	<path style="fill:#D6996B;" d="M56.276,245.144c-0.998,0-2.013-0.2-2.986-0.624c-3.799-1.651-5.539-6.07-3.888-9.868   c8.364-19.239,29.375-18.986,39.317-16.164c3.985,1.131,6.298,5.278,5.167,9.263c-1.128,3.974-5.256,6.284-9.23,5.176   c-0.166-0.044-4.719-1.236-9.772-0.62c-5.84,0.711-9.565,3.357-11.726,8.325C61.93,243.457,59.172,245.143,56.276,245.144z"/>
	<path style="fill:#E8B182;" d="M407.228,160.284v109.149c0,78.106-55.876,143.163-129.839,157.383   c-9.85,1.898-20.034,2.889-30.445,2.889c-88.517,0-160.272-71.755-160.272-160.272V160.284C86.672,71.767,158.427,0,246.944,0   c10.411,0,20.595,0.991,30.445,2.889c32.057,6.161,60.711,21.873,82.894,44.056C389.283,75.957,407.228,116.026,407.228,160.284z"/>
	<path style="fill:#FFD0A6;" d="M407.228,160.284v109.149c0,78.106-55.876,143.163-129.839,157.383   c-73.963-14.22-129.839-79.277-129.839-157.383V160.284c0-78.106,55.876-143.175,129.839-157.394   c32.057,6.161,60.711,21.873,82.894,44.056C389.283,75.957,407.228,116.026,407.228,160.284z"/>
	<path style="fill:#F95C5C;" d="M278.649,279.28c0,2.135-0.416,4.195-1.206,6.149c-8.925-7.366-22.152-6.875-30.49,1.473   c-8.348-8.349-21.576-8.84-30.49-1.473c-0.79-1.954-1.206-4.014-1.206-6.149c0-12.395,14.188-39.479,31.696-39.479   C264.461,239.8,278.649,266.885,278.649,279.28z"/>
	<path style="fill:#D11C1C;" d="M279.065,294.402c-1.922,0-3.843-0.734-5.309-2.202c-0.331-0.332-0.699-0.666-1.095-0.993   c-6.063-5.005-14.838-4.578-20.402,0.995c-1.406,1.408-3.314,2.2-5.305,2.2c0,0-0.001,0-0.002,0c-1.989,0-3.896-0.79-5.304-2.197   c-5.575-5.575-14.349-6.002-20.409-0.995c-0.391,0.323-0.759,0.657-1.097,0.995c-2.93,2.929-7.678,2.929-10.607,0   c-2.929-2.929-2.929-7.678,0-10.606c0.673-0.673,1.396-1.33,2.15-1.952c10.267-8.484,24.442-9.135,35.265-2.295   c10.813-6.837,24.99-6.189,35.267,2.293c0.768,0.635,1.49,1.292,2.156,1.959c2.926,2.932,2.922,7.68-0.01,10.606   C282.9,293.672,280.982,294.402,279.065,294.402z"/>
	<path style="fill:#5B5B68;" d="M407.23,160.284v23.664c-189.75-0.239-252.825-77.844-252.825-77.844   c0,32.236-32.236,66.251-67.731,77.844v-23.664C86.674,71.767,158.429,0,246.946,0c10.411,0,20.595,0.991,30.445,2.889   c32.057,6.161,60.711,21.873,82.894,44.056C389.285,75.957,407.23,116.026,407.23,160.284z"/>
	<path style="fill:#40404C;" d="M277.385,2.889C220.709,13.79,174.66,54.539,156.214,108.134c-1.23-1.301-1.815-2.03-1.815-2.03   c0,32.236-32.236,66.251-67.731,77.844v-23.664C86.668,71.767,158.422,0,246.94,0C257.351,0,267.535,0.991,277.385,2.889z"/>
	<path style="fill:#30CEB3;" d="M250.896,460.887c0,0.478,0.006,0.954,0.017,1.43c0.86,36.5,65.004,36.5,65.864,0   c0.011-0.475,0.017-0.952,0.017-1.43c0-22.928-12.962-43.26-32.949-55.92C263.858,417.627,250.896,437.959,250.896,460.887z"/>
	<path style="fill:#D11C1C;" d="M291.411,352.342c-0.663,0-1.336-0.088-2.006-0.274c-14.105-3.908-28.756-6.051-43.543-6.37   c-4.141-0.089-7.426-3.519-7.336-7.66c0.088-4.085,3.429-7.338,7.495-7.338c0.055,0,0.109,0,0.165,0.002   c16.03,0.346,31.919,2.671,47.223,6.91c3.992,1.106,6.332,5.238,5.226,9.23C297.715,350.164,294.698,352.342,291.411,352.342z"/>
	<path style="fill:#1FB598;" d="M283.848,489.689c-16.259,0-32.508-9.128-32.935-27.373c-0.011-0.48-0.021-0.95-0.021-1.43   c0-22.932,12.961-43.258,32.946-55.92c-6.897,12.661-11.38,32.988-11.38,55.92c0,0.481,0,0.95,0.011,1.43   C272.617,480.561,278.232,489.689,283.848,489.689z"/>
	<path style="fill:#30CEB3;" d="M192.656,368.312c0,0.478,0.006,0.954,0.017,1.43c0.86,36.5,65.004,36.5,65.864,0   c0.011-0.475,0.017-0.952,0.017-1.43c0-22.928-12.962-43.26-32.949-55.92C205.618,325.052,192.656,345.384,192.656,368.312z"/>
	<path style="fill:#1FB598;" d="M225.608,397.114c-16.259,0-32.508-9.128-32.935-27.373c-0.011-0.48-0.021-0.95-0.021-1.43   c0-22.932,12.961-43.258,32.946-55.92c-6.897,12.661-11.38,32.988-11.38,55.92c0,0.481,0,0.95,0.011,1.43   C214.377,387.987,219.992,397.114,225.608,397.114z"/>
	<path style="fill:#D6996B;" d="M167.466,267.128c-13.408,0-26.063-6.526-33.854-17.458c-2.403-3.373-1.617-8.056,1.756-10.46   c3.377-2.405,8.058-1.617,10.461,1.756c4.98,6.989,13.068,11.162,21.637,11.162c14.638,0,26.546-11.909,26.546-26.546   c0-4.142,3.357-7.5,7.5-7.5s7.5,3.358,7.5,7.5C209.012,248.491,190.375,267.128,167.466,267.128z"/>
	<path style="fill:#D6996B;" d="M320.646,267.128c-22.908,0-41.546-18.637-41.546-41.546c0-4.142,3.357-7.5,7.5-7.5   s7.5,3.358,7.5,7.5c0,14.637,11.908,26.546,26.546,26.546c8.567,0,16.656-4.173,21.638-11.163c2.402-3.373,7.087-4.16,10.46-1.755   c3.373,2.404,4.159,7.087,1.755,10.46C346.709,260.602,334.053,267.128,320.646,267.128z"/>
</g>















</svg>
