<svg id="Layer_1" enable-background="new 0 0 256 256" height="512" viewBox="0 0 256 256" width="512" xmlns="http://www.w3.org/2000/svg"><path d="m74.387 152.004c-1.298 1.083-2.611 2.133-2.765 2.256 0 0 0 .001-.001.001-4.263 2.83-8.301 4.118-8.301 4.118s.001-.002.001-.002c-5.77 2.072-11.977 2.259-17.65.326l-.005.006c-1.336-.241-1.417 1.268-1.417 1.268.245 2.283.155 3.51.155 3.51-.095 5.753-1.845 11.687-5.382 17.001-4.3 6.461-10.462 10.833-17.069 12.786l.006.007c-1.653 1.175-.491 2.353-.491 2.353l-.003.004c7.072 7.713 8.831 19.489 4.488 30.072l.006-.002c.08 1.78 1.727 1.388 1.727 1.388l-.001.007c6.663-1.37 13.602-.302 19.429 3.582 4.823 3.215 8.159 7.879 9.907 13.179l.005-.002s.439 1.064.87 3.354l.003-.001s.727 1.395 2.156.511l.004.013c6.836-6.885 16.16-10.059 24.843-8.72.973.179 1.935.422 2.885.717l.001-.005s1.567.314 2.021-1.486c-.014-.143-.027-.288-.04-.434-.003-.005-.007-.011-.01-.017-.006-.078-.005-.157-.01-.235-.044-.572-.071-1.143-.062-1.634l.001.001c-.021-1.192.042-1.954.042-1.954h.001c.054-.946.885-1.707 1.782-1.633l13.019 1.073 7.86-11.931-6.09-11.773c-.421-.813-.045-1.894.813-2.33 1.055-.537 2.136-.999 3.23-1.402 0-.001-.002-.008-.002-.008s3.321-1.66 1.515-4.352c-5.297-6.887-6.837-16.36-4.186-25.353l-.007-.003c.84-3.608-3.225-3.504-3.225-3.504-5.682.514-11.407-.757-16.336-4.042-5.592-3.728-9.196-9.399-10.631-15.756-.316-1.412-1.925-1.922-3.086-.954z" fill="#ffea92"/><path d="m165.754 188.237h-9.955c-.022-.001-.043-.004-.064-.004l-.004.004h-65.485c-17.3 0-31.324 14.024-31.324 31.324v15.713 4.462 8.264h138.155v-8.264-4.462-15.713c.001-17.299-14.023-31.324-31.323-31.324z" fill="#6bdddd"/><path d="m189.809 99.036c-.131 0-.258.017-.388.019v-5.751c0-33.616-27.499-60.868-61.421-60.868-33.922 0-61.421 27.251-61.421 60.868v5.751c-.13-.003-.257-.019-.388-.019-10.349 0-18.739 8.314-18.739 18.57s8.39 18.57 18.739 18.57c.68 0 1.349-.04 2.011-.11 6.338 26.928 30.696 46.993 59.799 46.993 29.103 0 53.46-20.065 59.799-46.993.661.07 1.331.11 2.011.11 10.349 0 18.739-8.314 18.739-18.57-.002-10.256-8.392-18.57-18.741-18.57z" fill="#f9cfcf"/><path d="m128 185.059c-29.057 0-54.037-19.193-61.335-46.889-11.653.277-21.213-9.066-21.213-20.563 0-10.804 8.441-19.69 19.127-20.508v-3.793c0-34.665 28.45-62.867 63.421-62.867s63.421 28.202 63.421 62.867v3.793c10.686.818 19.127 9.704 19.127 20.508 0 11.342-9.304 20.569-20.739 20.569-.156 0-.314-.002-.474-.006-7.298 27.695-32.278 46.889-61.335 46.889zm-59.797-50.993c.917 0 1.73.63 1.945 1.542 6.299 26.761 30.089 45.451 57.852 45.451s51.553-18.69 57.852-45.451c.231-.981 1.17-1.644 2.157-1.53.629.066 1.218.099 1.8.099 9.23 0 16.739-7.433 16.739-16.569 0-9.134-7.506-16.566-16.732-16.57-.171.011-.264.017-.357.019-.012 0-.024 0-.037 0-.523 0-1.026-.205-1.4-.573-.384-.376-.6-.89-.6-1.427v-5.751c0-32.459-26.656-58.867-59.421-58.867s-59.422 26.406-59.422 58.866v5.751c0 .537-.216 1.051-.6 1.427-.383.376-.946.608-1.438.572-.094-.001-.188-.007-.28-.014-.002 0-.006 0-.009 0-9.297 0-16.801 7.431-16.801 16.565 0 9.136 7.509 16.569 16.739 16.569.581 0 1.17-.032 1.8-.099.073-.007.143-.01.213-.01z" fill="#3762cc"/><path d="m128 183.059c-10.036 0-19.507-2.388-27.871-6.619v10.637c0 15.388 12.475 27.863 27.863 27.863s27.863-12.475 27.863-27.863v-10.629c-8.359 4.226-17.825 6.611-27.855 6.611z" fill="#f9cfcf"/><path d="m197.078 250h-138.156c-1.104 0-2-.896-2-2v-28.439c0-18.375 14.949-33.324 33.324-33.324h7.883v-9.797c0-.695.36-1.34.952-1.704.592-.365 1.328-.396 1.951-.081 8.398 4.249 17.472 6.403 26.968 6.403 9.49 0 18.559-2.152 26.953-6.396.618-.314 1.357-.283 1.95.081.592.364.952 1.009.952 1.704v9.79h7.898c18.375 0 33.324 14.949 33.324 33.324v28.439c.001 1.104-.894 2-1.999 2zm-136.156-4h134.156v-26.439c0-16.169-13.155-29.324-29.324-29.324h-9.928c-.545 0-1.065-.222-1.442-.615s-.578-.922-.556-1.466c.015-.358.027-.718.027-1.08v-7.466c-8.135 3.617-16.816 5.448-25.855 5.448-9.045 0-17.732-1.833-25.871-5.455v7.473c0 .362.013.721.027 1.08.022.544-.179 1.074-.556 1.466s-.897.615-1.442.615h-9.912c-16.169 0-29.324 13.155-29.324 29.324z" fill="#3762cc"/><path d="m110.839 89.164h-61.329v-21.294c0-33.065 26.805-59.87 59.87-59.87h17.222c8.705 0 15.762 7.057 15.762 15.762v33.878c0 17.41-14.114 31.524-31.525 31.524z" fill="#4671c6"/><path d="m205.513 87.056h-35.691c-15.165 0-27.459-12.294-27.459-27.459v-37.192c0-7.956 6.449-14.405 14.405-14.405 26.921 0 48.744 21.824 48.744 48.744v30.312z" fill="#4671c6"/><path d="m55.967 89.164v12.892c2.942-1.903 6.449-3.019 10.224-3.019.131 0 .258.017.388.019v-5.751c0-1.393.056-2.772.149-4.141z" fill="#4671c6"/><path d="m189.09 87.056c.212 2.055.331 4.138.331 6.249v5.751c.13-.003.257-.019.388-.019 3.769 0 7.27 1.113 10.209 3.01v-14.991z" fill="#4671c6"/><path d="m89.195 128.368c-.708 0-1.394-.376-1.757-1.041-.53-.969-.174-2.184.795-2.714l14.912-8.155c.036-.02.111-.061.11-.187-.001-.127-.08-.168-.113-.187l-14.883-7.855c-.977-.516-1.351-1.725-.835-2.702s1.725-1.351 2.702-.835l14.883 7.855c1.374.725 2.234 2.141 2.246 3.694s-.828 2.981-2.19 3.726l-14.912 8.156c-.304.166-.633.245-.958.245z" fill="#3762cc"/><path d="m166.61 128.368c-.324 0-.653-.079-.958-.246l-14.912-8.155c-1.362-.745-2.202-2.173-2.191-3.727.012-1.553.872-2.969 2.246-3.694l14.884-7.855c.979-.516 2.187-.141 2.702.835.516.977.142 2.187-.835 2.702l-14.884 7.855c-.036.02-.112.06-.113.186s.074.167.11.188l14.913 8.155c.969.53 1.325 1.746.795 2.714-.363.666-1.049 1.042-1.757 1.042z" fill="#3762cc"/><path d="m143.813 155.5h-31.625c-1.774 0-3.211-1.438-3.211-3.211 0-8.076 6.547-14.622 14.622-14.622h8.804c8.076 0 14.622 6.547 14.622 14.622-.001 1.773-1.439 3.211-3.212 3.211z" fill="#f9a7a7"/><g fill="#3762cc"><path d="m110.839 91.164h-61.328c-1.104 0-2-.896-2-2v-21.294c0-34.116 27.754-61.87 61.869-61.87h17.222c9.794 0 17.762 7.968 17.762 17.762v33.878c-.001 18.485-15.04 33.524-33.525 33.524zm-59.328-4h59.328c16.28 0 29.524-13.245 29.524-29.524v-33.878c0-7.588-6.174-13.762-13.762-13.762h-17.221c-31.909 0-57.869 25.96-57.869 57.87z"/><path d="m205.514 89.056h-35.69c-16.244 0-29.46-13.215-29.46-29.459v-37.192c0-9.046 7.359-16.405 16.405-16.405 27.98 0 50.745 22.764 50.745 50.745v30.311c0 1.104-.896 2-2 2zm-48.745-79.056c-6.84 0-12.405 5.565-12.405 12.405v37.191c0 14.038 11.421 25.459 25.46 25.459h33.69v-28.31c0-25.775-20.97-46.745-46.745-46.745z"/><path d="m55.967 104.056c-.328 0-.657-.081-.956-.243-.644-.35-1.044-1.024-1.044-1.757v-12.892c0-1.104.896-2 2-2h10.761c.554 0 1.083.229 1.461.634.379.405.572.948.534 1.501-.097 1.429-.144 2.739-.144 4.005v5.751c0 .537-.216 1.051-.6 1.427-.383.376-.946.608-1.438.572-.094-.001-.187-.007-.28-.014-.008 0-.017 0-.025 0-3.312 0-6.462.933-9.183 2.693-.329.215-.707.323-1.086.323zm2-12.892v7.564c2.096-.902 4.326-1.453 6.612-1.629v-3.794c0-.699.014-1.409.04-2.141z"/><path d="m200.018 104.046c-.378 0-.756-.107-1.085-.32-2.726-1.76-5.881-2.69-9.124-2.69-.163.011-.257.017-.351.019-.012 0-.024 0-.037 0-.523 0-1.026-.205-1.4-.573-.384-.376-.6-.89-.6-1.427v-5.751c0-1.948-.107-3.981-.32-6.044-.059-.563.125-1.125.504-1.545.38-.42.919-.66 1.485-.66h10.928c1.104 0 2 .896 2 2v14.991c0 .732-.4 1.406-1.043 1.756-.299.163-.629.244-.957.244zm-8.597-6.947c2.279.176 4.506.725 6.597 1.624v-9.667h-6.748c.101 1.443.151 2.865.151 4.249z"/><path d="m143.813 157.5h-31.625c-2.873 0-5.211-2.338-5.211-5.211 0-9.166 7.457-16.622 16.622-16.622h8.803c9.165 0 16.622 7.457 16.622 16.622-.001 2.873-2.338 5.211-5.211 5.211zm-20.214-17.833c-6.96 0-12.622 5.662-12.622 12.622 0 .668.543 1.211 1.211 1.211h31.625c.668 0 1.211-.543 1.211-1.211 0-6.96-5.662-12.622-12.622-12.622z"/></g><path d="m90.031 244.178 3.822 3.822h41.82l-20.865-19.289-5.462-5.462c-.505-.505-.882-1.123-1.101-1.803l-.616-1.918-2.541-9.274c-.162-.715-.393-1.416-.693-2.095l-3.447-10.529c-.189-.7-.558-1.338-1.071-1.85l-9.363-9.363c-.729-.729-1.705-1.161-2.735-1.21l-5.504-.262-2.973-2.973c-1.183-1.183-3.01-1.327-4.351-.434l-9.232 5.251c-.12.068-.236.142-.352.216-.332.163-.644.378-.921.654l-.418.418-2.983 2.983-3.81 3.81c-.615.615-1.125 1.327-1.51 2.108l-5.55 11.265-1.421 2.536.002-.001c-.678 1.267-.487 2.876.582 3.944l1.579 1.579 19.738 19.738c1.558 1.558 3.453 2.574 5.45 3.049l12.152 4c.67.219 1.276.592 1.774 1.09z" fill="#f9cfcf"/><path d="m135.674 250h-41.821c-.53 0-1.039-.211-1.414-.586l-3.82-3.821c-.275-.275-.616-.485-.984-.606l-12.076-3.976c-2.389-.585-4.57-1.815-6.314-3.56l-21.317-21.317c-1.65-1.649-2.039-4.125-.986-6.197.021-.046.045-.092.07-.138l1.396-2.49 5.526-11.217c.483-.98 1.119-1.868 1.89-2.638l7.21-7.21c.394-.393.845-.722 1.344-.98.118-.075.237-.148.36-.218l9.172-5.218c2.147-1.385 4.997-1.083 6.808.729l2.427 2.426 4.731.226c1.531.072 2.971.709 4.055 1.793l9.363 9.363c.745.745 1.288 1.673 1.572 2.687l3.403 10.393c.33.765.59 1.561.772 2.369l2.519 9.186.592 1.834c.12.375.331.722.611 1.001l5.462 5.462 20.809 19.234c.604.559.805 1.431.505 2.198s-1.042 1.271-1.865 1.271zm-40.993-4h35.884l-17.113-15.82-5.52-5.517c-.729-.729-1.278-1.63-1.591-2.607l-.616-1.917-2.565-9.358c-.155-.678-.347-1.258-.593-1.815-.027-.061-.051-.123-.071-.186l-3.447-10.529c-.011-.033-.021-.066-.03-.1-.098-.362-.29-.694-.555-.959l-9.364-9.362c-.379-.378-.882-.601-1.416-.626l-5.504-.262c-.497-.023-.968-.231-1.319-.583l-2.974-2.973c-.487-.489-1.256-.566-1.828-.184-.039.026-.079.05-.119.073l-9.231 5.251c-.092.052-.175.105-.258.159-.065.042-.134.08-.203.115-.148.072-.278.164-.388.273l-7.21 7.209c-.461.461-.841.992-1.13 1.579l-5.55 11.264c-.016.032-.032.063-.049.094l-1.376 2.455c-.008.016-.016.032-.024.048-.282.526-.188 1.164.233 1.585l21.317 21.318c1.242 1.242 2.798 2.113 4.498 2.518.055.013.109.028.162.046l12.152 4c.959.315 1.844.86 2.561 1.575 0 0 .001.001.001.001z" fill="#3762cc"/></svg>